<svg xmlns="http://www.w3.org/2000/svg" width="52" height="35"><defs><clipPath id="a"><path clip-rule="evenodd" d="M-1170-1249H270v6471h-1440z"/></clipPath></defs><g clip-path="url(#a)"><path fill="#C7161B" d="M5.462 30.792h20.975v-1.748h-20.1V13.313h-1.75v16.605c0 .483.391.874.874.874z"/></g><defs><clipPath id="b"><path clip-rule="evenodd" d="M-1170-1249H270v6471h-1440z"/></clipPath></defs><g clip-path="url(#b)"><path fill="#C7161B" d="M8.084 23.8h1.748v3.496H8.084V23.8z"/></g><defs><clipPath id="c"><path clip-rule="evenodd" d="M-1170-1249H270v6471h-1440z"/></clipPath></defs><g clip-path="url(#c)"><path fill="#C7161B" d="M11.58 22.927h1.748v4.37H11.58v-4.37z"/></g><defs><clipPath id="d"><path clip-rule="evenodd" d="M-1170-1249H270v6471h-1440z"/></clipPath></defs><g clip-path="url(#d)"><path fill="#C7161B" d="M15.076 21.179h1.748v6.117h-1.748V21.18z"/></g><defs><clipPath id="e"><path clip-rule="evenodd" d="M-1170-1249H270v6471h-1440z"/></clipPath></defs><g clip-path="url(#e)"><path fill="#C7161B" d="M18.572 19.43h1.747v7.866h-1.747v-7.865z"/></g><defs><clipPath id="f"><path clip-rule="evenodd" d="M-1170-1249H270v6471h-1440z"/></clipPath></defs><g clip-path="url(#f)"><path fill="#C7161B" d="M22.067 16.81h1.748v10.486h-1.748V16.81z"/></g><defs><clipPath id="g"><path clip-rule="evenodd" d="M-1170-1249H270v6471h-1440z"/></clipPath></defs><g clip-path="url(#g)"><path fill="#C7161B" d="M19.445 16.809h1.748v-3.496a.874.874 0 0 0-.874-.874h-3.496v1.748h1.234a15.878 15.878 0 0 1-9.973 3.496v1.748a17.61 17.61 0 0 0 11.361-4.12v1.498z"/></g><defs><clipPath id="h"><path clip-rule="evenodd" d="M-1170-1249H270v6471h-1440z"/></clipPath></defs><g clip-path="url(#h)"><path fill="#C7161B" d="M26.437 27.296h1.748v1.748h-1.748v-1.748z"/></g><defs><clipPath id="i"><path clip-rule="evenodd" d="M-1170-1249H270v6471h-1440z"/></clipPath></defs><g clip-path="url(#i)"><path fill="#C7161B" d="M50.907.204H22.941a.874.874 0 0 0-.874.874v7.866H1.093a.874.874 0 0 0-.875.873v24.471c0 .483.392.874.875.874h31.462a.874.874 0 0 0 .873-.874V22.927h17.48a.874.874 0 0 0 .874-.874V1.078a.874.874 0 0 0-.875-.874zM33.428 21.179h16.606V1.952H23.815v6.992h1.748V3.7h1.748v5.244h5.244c.482 0 .873.39.873.873v7.866h13.11v1.748h-13.11v1.748zm-1.747 12.235H1.966V10.691h29.715v22.723z" fill-rule="evenodd"/></g><defs><clipPath id="j"><path clip-rule="evenodd" d="M-1170-1249H270v6471h-1440z"/></clipPath></defs><g clip-path="url(#j)"><path fill="#C7161B" d="M46.538 15.935h1.748v1.748h-1.748v-1.748z"/></g><defs><clipPath id="k"><path clip-rule="evenodd" d="M-1170-1249H270v6471h-1440z"/></clipPath></defs><g clip-path="url(#k)"><path fill="#C7161B" d="M42.168 13.313h1.748v2.622h-1.748v-2.622z"/></g><defs><clipPath id="l"><path clip-rule="evenodd" d="M-1170-1249H270v6471h-1440z"/></clipPath></defs><g clip-path="url(#l)"><path fill="#C7161B" d="M38.672 12.44h1.748v3.495h-1.747v-3.496z"/></g><defs><clipPath id="m"><path clip-rule="evenodd" d="M-1170-1249H270v6471h-1440z"/></clipPath></defs><g clip-path="url(#m)"><path fill="#C7161B" d="M35.176 10.691h1.748v5.244h-1.748v-5.244z"/></g><defs><clipPath id="n"><path clip-rule="evenodd" d="M-1170-1249H270v6471h-1440z"/></clipPath></defs><g clip-path="url(#n)"><path fill="#C7161B" d="M36.375 8.881l3.834-1.534 1.597 1.597H40.42v1.747h3.496a.874.874 0 0 0 .874-.874V6.322h-1.748v1.386l-2.004-2.004a.874.874 0 0 0-.943-.194l-3.967 1.587-3.997-2.398-.9 1.498 4.37 2.621a.88.88 0 0 0 .774.063z"/></g></svg>