<svg xmlns="http://www.w3.org/2000/svg" width="50" height="50"><defs><clipPath id="a"><path clip-rule="evenodd" d="M-215-1237h1440v6471H-215z"/></clipPath></defs><g clip-path="url(#a)"><path fill="#C7161B" d="M40.417 8.537a1.25 1.25 0 1 0 0 2.5 1.25 1.25 0 0 0 0-2.5z"/></g><defs><clipPath id="b"><path clip-rule="evenodd" d="M-215-1237h1440v6471H-215z"/></clipPath></defs><g clip-path="url(#b)"><path fill="#C7161B" d="M42.744.448a.833.833 0 0 1 1.179 0l5.833 5.833a.833.833 0 0 1 0 1.178l-6.667 6.667a.833.833 0 0 1-.589.244h-5.833a.833.833 0 0 1-.834-.833V7.704c0-.221.089-.433.245-.59L42.744.449zM37.5 12.704h4.655L47.99 6.87l-4.656-4.655L37.5 8.05v4.655z" fill-rule="evenodd"/></g><defs><clipPath id="c"><path clip-rule="evenodd" d="M-215-1237h1440v6471H-215z"/></clipPath></defs><g clip-path="url(#c)"><path fill="#C7161B" d="M.834 28.537h2.5v.107a3.227 3.227 0 0 0 2.5 3.136v7.59c0 .46.373.834.833.834h5c.46 0 .833-.373.833-.834v-3.333h.84a2.5 2.5 0 0 0 2.493-2.493V31.78a3.222 3.222 0 0 0 2.299-2.05l14.03 6.235a.833.833 0 0 0 1.171-.761v-20a.833.833 0 0 0-1.171-.762l-14.03 6.236a3.22 3.22 0 0 0-3.025-2.14H6.56a3.23 3.23 0 0 0-3.227 3.226v.107h-2.5a.833.833 0 0 0-.833.833v5c0 .46.373.833.834.833zm27.5-10.57l3.333-1.48V33.92l-3.334-1.48V17.967zm-1.667.74l-8.334 3.705v5.584l8.334 3.708V18.708zM5 28.645v-6.88a1.562 1.562 0 0 1 1.56-1.56h8.547c.86 0 1.559.699 1.56 1.56v6.88a1.562 1.562 0 0 1-1.56 1.56H6.56A1.563 1.563 0 0 1 5 28.645zm-1.667-5.107H1.667v3.334h1.666v-3.334zm7.5 8.333v6.667H7.5V31.87h3.333zm2.507 2.5c.457 0 .826-.37.827-.826V31.87H12.5v2.5h.84z" fill-rule="evenodd"/></g><defs><clipPath id="d"><path clip-rule="evenodd" d="M-215-1237h1440v6471H-215z"/></clipPath></defs><g clip-path="url(#d)"><path fill="#C7161B" d="M41.507 32.972a.833.833 0 0 0-1.178 0l-5.894 5.893a.833.833 0 0 0 0 1.179l8.25 8.25a.833.833 0 0 0 1.179 0l5.892-5.893a.833.833 0 0 0 0-1.178l-8.25-8.251zm-5.304 6.482l7.071 7.07 4.023-4.022-5.855-.45a.833.833 0 0 1-.766-.767l-.45-5.854-4.023 4.023zm10.782 1.352l-4.703-.361-.361-4.703 5.064 5.064z" fill-rule="evenodd"/></g><defs><clipPath id="e"><path clip-rule="evenodd" d="M-215-1237h1440v6471H-215z"/></clipPath></defs><g clip-path="url(#e)"><path fill="#C7161B" d="M28.335 10.229a5.822 5.822 0 0 1-5.835 5.808 5.834 5.834 0 1 1 3.487-10.5l5.09-5.089 1.18 1.178-5.09 5.091a5.824 5.824 0 0 1 1.168 3.512zm-1.668-.025a4.167 4.167 0 1 0-8.334 0 4.167 4.167 0 0 0 8.334 0z" fill-rule="evenodd"/></g><defs><clipPath id="f"><path clip-rule="evenodd" d="M-215-1237h1440v6471H-215z"/></clipPath></defs><g clip-path="url(#f)"><path fill="#C7161B" d="M35.833 29.37H40v.834c0 .46.373.833.834.833H47.5c.46 0 .833-.373.833-.833v-4.15a3.344 3.344 0 0 0-2.234-3.145 3.333 3.333 0 1 0-3.865 0c-.539.192-1.02.52-1.397.951a3.331 3.331 0 0 0-1.042-.804 2.5 2.5 0 1 0-2.923 0A3.326 3.326 0 0 0 35 26.037v2.5c0 .46.373.834.833.834zm8.334-10.833a1.667 1.667 0 1 1 0 3.334 1.667 1.667 0 0 1 0-3.334zm-5.834 1.667a.833.833 0 1 1 0 1.666.833.833 0 0 1 0-1.666zm0 4.166c-.92 0-1.666.747-1.666 1.667v1.667H40v-1.667c0-.92-.746-1.667-1.667-1.667zm3.334 1.683v3.317h5v-3.317a1.685 1.685 0 0 0-1.683-1.683H43.35a1.685 1.685 0 0 0-1.682 1.683z" fill-rule="evenodd"/></g><defs><clipPath id="g"><path clip-rule="evenodd" d="M-215-1237h1440v6471H-215z"/></clipPath></defs><g clip-path="url(#g)"><path fill="#C7161B" d="M20 34.37h3.333c.221 0 .433.088.59.245l7.5 7.5a.834.834 0 0 1 0 1.178l-6.667 6.667a.833.833 0 0 1-1.179 0l-9.166-9.167a.833.833 0 0 1 0-1.178l5-5A.834.834 0 0 1 20 34.37zm-3.822 5.834l7.989 7.988 5.488-5.488-6.667-6.667h-2.643l-4.167 4.167z" fill-rule="evenodd"/></g><defs><clipPath id="h"><path clip-rule="evenodd" d="M-215-1237h1440v6471H-215z"/></clipPath></defs><g clip-path="url(#h)"><path fill="#C7161B" d="M19.411 41.281l3.333-3.333 1.179 1.178-3.334 3.334-1.178-1.179z"/></g><defs><clipPath id="i"><path clip-rule="evenodd" d="M-215-1237h1440v6471H-215z"/></clipPath></defs><g clip-path="url(#i)"><path fill="#C7161B" d="M21.91 43.781l3.334-3.333 1.179 1.178-3.334 3.334-1.178-1.179z"/></g></svg>