<svg xmlns="http://www.w3.org/2000/svg" width="19" height="17"><defs><clipPath id="a"><path clip-rule="evenodd" d="M-1334-80H106v6471h-1440z"/></clipPath></defs><g clip-path="url(#a)"><path fill="#FFF" d="M18.633 6.674c.01.024.017.065.017.092l.014 10.067a.465.465 0 0 1-.465.466l-17.218.023a.465.465 0 0 1-.465-.464L.502 6.775v-.008a.464.464 0 0 1 .2-.376l2.613-1.805V2.67c0-.257.208-.465.465-.465h2.978L9.32.436c.16-.11.37-.11.53 0l2.544 1.77h2.991c.257 0 .466.208.466.465v1.937l2.6 1.808a.464.464 0 0 1 .182.258zm-9.05-5.29l1.182.822h-2.37l1.188-.822zm5.337 1.752H4.245v5.339l3.588 2.48 1.472-1.143c.17-.131.4-.127.563-.004l.007.004 1.461 1.134 3.584-2.492V3.136zM3.315 5.716v2.116l-1.53-1.058 1.53-1.058zm14.022 1.058L15.85 5.741v2.067l1.486-1.034zm.384.866l-5.615 3.903 5.626 4.364-.011-8.267zM7.06 11.552l-5.628-3.89.012 8.247 5.617-4.357zM2.34 16.39l7.249-5.622 7.222 5.602-14.47.02z" fill-rule="evenodd"/></g><defs><clipPath id="b"><path clip-rule="evenodd" d="M-1334-80H106v6471h-1440z"/></clipPath></defs><g clip-path="url(#b)"><path fill="#FFF" d="M12.732 4.997H6.434a.465.465 0 0 0 0 .93h6.298a.465.465 0 0 0 0-.93z"/></g><defs><clipPath id="c"><path clip-rule="evenodd" d="M-1334-80H106v6471h-1440z"/></clipPath></defs><g clip-path="url(#c)"><path fill="#FFF" d="M12.732 7.415H6.434a.465.465 0 0 0 0 .93h6.298a.465.465 0 0 0 0-.93z"/></g></svg>