<svg xmlns="http://www.w3.org/2000/svg" width="20" height="20"><defs><clipPath id="a"><path clip-rule="evenodd" d="M-1334-48H106v6471h-1440z"/></clipPath></defs><g clip-path="url(#a)"><path fill="#FFF" d="M15.108 11.565l3.865 3.864a1.184 1.184 0 0 1 0 1.673l-1.005 1.005a1.175 1.175 0 0 1-1.165.3l-.211.21c-.733.733-1.754 1.104-2.98 1.104-.747 0-1.57-.138-2.45-.416-2.19-.695-4.51-2.19-6.532-4.213-2.023-2.023-3.52-4.343-4.213-6.533-.709-2.236-.508-4.107.56-5.295.017-.021.338-.345.338-.345-.115-.4-.015-.85.3-1.165L2.619.749c.224-.224.52-.347.837-.347.316 0 .613.123.836.347l3.865 3.864a1.184 1.184 0 0 1 0 1.673L7.152 7.291a1.18 1.18 0 0 1-1.165.3l-.38.379c-.269.27.145 1.946 2.172 3.973 2.026 2.027 3.703 2.44 3.973 2.17l.379-.379c-.115-.4-.015-.85.3-1.164l1.004-1.005a1.185 1.185 0 0 1 1.673 0zM7.32 5.45L3.456 1.585 2.45 2.59l1.932 1.932 1.933 1.933L7.32 5.45zm8.435 12.33v.001c-.851.851-2.355.992-4.235.396-2.013-.638-4.163-2.03-6.054-3.922-1.89-1.89-3.284-4.04-3.921-6.053-.596-1.88-.456-3.385.395-4.236l.107-.107 3 3-.276.274v.001c-1.14 1.141.23 3.703 2.171 5.645 1.454 1.454 3.255 2.586 4.547 2.586.435 0 .812-.128 1.1-.415l.274-.275 3 3-.108.106zm-2.488-4.374l3.864 3.864 1.005-1.005-3.864-3.864-1.005 1.005z" fill-rule="evenodd"/></g><defs><clipPath id="b"><path clip-rule="evenodd" d="M-1334-48H106v6471h-1440z"/></clipPath></defs><g clip-path="url(#b)"><path fill="#FFF" d="M14.977 4.745A5.917 5.917 0 0 0 10.765 3a.591.591 0 1 0 0 1.183c1.275 0 2.474.497 3.375 1.398a4.742 4.742 0 0 1 1.398 3.375.592.592 0 0 0 1.183 0 5.92 5.92 0 0 0-1.744-4.211z"/></g><defs><clipPath id="c"><path clip-rule="evenodd" d="M-1334-48H106v6471h-1440z"/></clipPath></defs><g clip-path="url(#c)"><path fill="#FFF" d="M17.098 2.623A8.898 8.898 0 0 0 10.765 0a.592.592 0 0 0 0 1.183c2.076 0 4.028.809 5.497 2.277a7.723 7.723 0 0 1 2.276 5.497.591.591 0 0 0 1.183 0 8.898 8.898 0 0 0-2.623-6.334z"/></g><defs><clipPath id="d"><path clip-rule="evenodd" d="M-1334-48H106v6471h-1440z"/></clipPath></defs><g clip-path="url(#d)"><path fill="#FFF" d="M12.855 6.866A2.897 2.897 0 0 0 10.765 6a.591.591 0 1 0 0 1.183c.487 0 .91.175 1.254.52.34.34.519.773.519 1.253a.592.592 0 0 0 1.183 0c0-.8-.3-1.523-.866-2.09z"/></g></svg>