<svg xmlns="http://www.w3.org/2000/svg" width="42" height="50"><defs><clipPath id="a"><path clip-rule="evenodd" d="M-699-1237H741v6471H-699z"/></clipPath></defs><g clip-path="url(#a)"><path fill="#C7161B" d="M.15 4.37v45c0 .46.373.834.834.834h40c.46 0 .833-.373.833-.834v-45a.833.833 0 0 0-.833-.833h-9.167v1.667h8.334v43.333H1.817V5.204h8.333V3.537H.984a.833.833 0 0 0-.834.834z"/></g><defs><clipPath id="b"><path clip-rule="evenodd" d="M-699-1237H741v6471H-699z"/></clipPath></defs><g clip-path="url(#b)"><path fill="#C7161B" d="M15.04.204h11.888a3.227 3.227 0 0 1 3.222 3.223v1.888a3.226 3.226 0 0 1-3.222 3.222H15.04a3.227 3.227 0 0 1-3.223-3.222V3.427A3.227 3.227 0 0 1 15.04.204zM26.928 6.87c.86 0 1.555-.696 1.556-1.555V3.427c0-.86-.697-1.556-1.556-1.557H15.04c-.86 0-1.556.697-1.556 1.557v1.888c0 .859.696 1.555 1.556 1.555h11.888z" fill-rule="evenodd"/></g><defs><clipPath id="c"><path clip-rule="evenodd" d="M-699-1237H741v6471H-699z"/></clipPath></defs><g clip-path="url(#c)"><path fill="#C7161B" d="M4.317 7.704V44.37c0 .46.373.834.833.834h31.667c.46 0 .833-.373.833-.834V7.704h-1.666v35.833h-30V7.704H4.317z"/></g><defs><clipPath id="d"><path clip-rule="evenodd" d="M-699-1237H741v6471H-699z"/></clipPath></defs><g clip-path="url(#d)"><path fill="#C7161B" d="M10.15 17.704a5 5 0 1 0 10 0 5 5 0 0 0-10 0zm4.167 0v-3.215a3.327 3.327 0 1 0 4.048 4.048h-3.214a.834.834 0 0 1-.834-.833zm1.667-3.215a3.334 3.334 0 0 1 2.382 2.382h-2.382v-2.382z" fill-rule="evenodd"/></g><defs><clipPath id="e"><path clip-rule="evenodd" d="M-699-1237H741v6471H-699z"/></clipPath></defs><g clip-path="url(#e)"><path fill="#C7161B" d="M10.984 26.037h7.5v1.667h-7.5v-1.667z"/></g><defs><clipPath id="f"><path clip-rule="evenodd" d="M-699-1237H741v6471H-699z"/></clipPath></defs><g clip-path="url(#f)"><path fill="#C7161B" d="M10.984 29.37h7.5v1.667h-7.5v-1.666z"/></g><defs><clipPath id="g"><path clip-rule="evenodd" d="M-699-1237H741v6471H-699z"/></clipPath></defs><g clip-path="url(#g)"><path fill="#C7161B" d="M10.984 32.704h7.5v1.667h-7.5v-1.667z"/></g><defs><clipPath id="h"><path clip-rule="evenodd" d="M-699-1237H741v6471H-699z"/></clipPath></defs><g clip-path="url(#h)"><path fill="#C7161B" d="M26.817 11.037h2.5v1.667h-2.5v-1.667z"/></g><defs><clipPath id="i"><path clip-rule="evenodd" d="M-699-1237H741v6471H-699z"/></clipPath></defs><g clip-path="url(#i)"><path fill="#C7161B" d="M26.817 14.37h5v1.667h-5v-1.666z"/></g><defs><clipPath id="j"><path clip-rule="evenodd" d="M-699-1237H741v6471H-699z"/></clipPath></defs><g clip-path="url(#j)"><path fill="#C7161B" d="M28.484 26.87H25.15a.833.833 0 0 1-.833-.833v-3.333c0-.46.373-.833.833-.833h3.334c.46 0 .833.373.833.833v3.333c0 .46-.373.834-.833.834zm-.834-3.333h-1.666v1.667h1.666v-1.667z" fill-rule="evenodd"/></g><defs><clipPath id="k"><path clip-rule="evenodd" d="M-699-1237H741v6471H-699z"/></clipPath></defs><g clip-path="url(#k)"><path fill="#C7161B" d="M25.15 33.537a.833.833 0 0 1-.833-.833V29.37c0-.46.373-.834.833-.834h3.334c.46 0 .833.373.833.834v3.333c0 .46-.373.833-.833.833H25.15zm2.5-3.333h-1.666v1.666h1.666v-1.666z" fill-rule="evenodd"/></g><defs><clipPath id="l"><path clip-rule="evenodd" d="M-699-1237H741v6471H-699z"/></clipPath></defs><g clip-path="url(#l)"><path fill="#C7161B" d="M25.15 40.204a.834.834 0 0 1-.833-.834v-3.333c0-.46.373-.833.833-.833h3.334c.46 0 .833.373.833.833v3.333c0 .46-.373.834-.833.834H25.15zm2.5-3.334h-1.666v1.667h1.666V36.87z" fill-rule="evenodd"/></g><defs><clipPath id="m"><path clip-rule="evenodd" d="M-699-1237H741v6471H-699z"/></clipPath></defs><g clip-path="url(#m)"><path fill="#C7161B" d="M30.984 23.537h3.333v1.667h-3.333v-1.667z"/></g><defs><clipPath id="n"><path clip-rule="evenodd" d="M-699-1237H741v6471H-699z"/></clipPath></defs><g clip-path="url(#n)"><path fill="#C7161B" d="M30.984 30.204h3.333v1.666h-3.333v-1.666z"/></g><defs><clipPath id="o"><path clip-rule="evenodd" d="M-699-1237H741v6471H-699z"/></clipPath></defs><g clip-path="url(#o)"><path fill="#C7161B" d="M30.984 36.87h3.333v1.667h-3.333V36.87z"/></g></svg>